<?xml version="1.0" encoding="UTF-8"?>
<svg id="Capa_1" data-name="Capa 1" xmlns="http://www.w3.org/2000/svg" viewBox="0 0 155.18 156.19">
  <defs>
    <style>
      .cls-1 {
        fill: #544b0b;
        stroke-width: 0px;
      }
    </style>
  </defs>
  <path class="cls-1" d="M140.36,156.19H14.82c-8.17,0-14.82-6.65-14.82-14.82V14.82C0,6.65,6.65,0,14.82,0h125.54c8.17,0,14.82,6.65,14.82,14.82v126.55c0,8.17-6.65,14.82-14.82,14.82ZM14.82,4c-5.97,0-10.82,4.85-10.82,10.82v126.55c0,5.97,4.85,10.82,10.82,10.82h125.54c5.97,0,10.82-4.85,10.82-10.82V14.82c0-5.97-4.85-10.82-10.82-10.82H14.82Z"/>
  <g>
    <rect class="cls-1" x="86.36" y="26.05" width="55.2" height=".31"/>
    <rect class="cls-1" x="84.36" y="24.05" width="59.2" height="4.31"/>
  </g>
  <g>
    <rect class="cls-1" x="86.36" y="54.34" width="55.2" height=".31"/>
    <rect class="cls-1" x="84.36" y="52.34" width="59.2" height="4.31"/>
  </g>
  <g>
    <rect class="cls-1" x="86.36" y="82.62" width="55.2" height=".31"/>
    <rect class="cls-1" x="84.36" y="80.62" width="59.2" height="4.31"/>
  </g>
  <g>
    <rect class="cls-1" x="86.36" y="110.91" width="55.2" height=".31"/>
    <rect class="cls-1" x="84.36" y="108.91" width="59.2" height="4.31"/>
  </g>
  <g>
    <rect class="cls-1" x="86.36" y="139.19" width="55.2" height=".31"/>
    <rect class="cls-1" x="84.36" y="137.19" width="59.2" height="4.31"/>
  </g>
  <path class="cls-1" d="M69.88,143.78H17.59c-5.35,0-9.71-4.36-9.71-9.71V21.78c0-5.35,4.36-9.71,9.71-9.71h52.29c5.35,0,9.71,4.36,9.71,9.71v112.29c0,5.35-4.36,9.71-9.71,9.71ZM17.59,16.07c-3.15,0-5.71,2.56-5.71,5.71v112.29c0,3.15,2.56,5.71,5.71,5.71h52.29c3.15,0,5.71-2.56,5.71-5.71V21.78c0-3.15-2.56-5.71-5.71-5.71H17.59Z"/>
</svg>