<?xml version="1.0" encoding="UTF-8"?>
<svg id="Capa_1" data-name="Capa 1" xmlns="http://www.w3.org/2000/svg" viewBox="0 0 155.18 156.19">
  <defs>
    <style>
      .cls-1 {
        fill: #544b0b;
        stroke-width: 0px;
      }
    </style>
  </defs>
  <path class="cls-1" d="M140.36,156.19H14.82c-8.17,0-14.82-6.65-14.82-14.82V14.82C0,6.65,6.65,0,14.82,0h125.54c8.17,0,14.82,6.65,14.82,14.82v126.55c0,8.17-6.65,14.82-14.82,14.82ZM14.82,4c-5.97,0-10.82,4.85-10.82,10.82v126.55c0,5.97,4.85,10.82,10.82,10.82h125.54c5.97,0,10.82-4.85,10.82-10.82V14.82c0-5.97-4.85-10.82-10.82-10.82H14.82Z"/>
  <g>
    <path class="cls-1" d="M135.86,143.94H19.32c-3.71,0-6.73-3.02-6.73-6.73v-48.82c0-3.71,3.02-6.73,6.73-6.73h116.54c3.71,0,6.73,3.02,6.73,6.73v48.82c0,3.71-3.02,6.73-6.73,6.73ZM19.32,85.66c-1.51,0-2.73,1.22-2.73,2.73v48.82c0,1.51,1.22,2.73,2.73,2.73h116.54c1.5,0,2.73-1.22,2.73-2.73v-48.82c0-1.5-1.22-2.73-2.73-2.73H19.32Z"/>
    <path class="cls-1" d="M135.86,74.53H19.32c-3.71,0-6.73-3.02-6.73-6.73V18.98c0-3.71,3.02-6.73,6.73-6.73h116.54c3.71,0,6.73,3.02,6.73,6.73v48.82c0,3.71-3.02,6.73-6.73,6.73ZM19.32,16.25c-1.51,0-2.73,1.22-2.73,2.73v48.82c0,1.51,1.22,2.73,2.73,2.73h116.54c1.5,0,2.73-1.22,2.73-2.73V18.98c0-1.51-1.22-2.73-2.73-2.73H19.32Z"/>
  </g>
</svg>