<?xml version="1.0" encoding="UTF-8"?>
<svg id="Capa_1" data-name="Capa 1" xmlns="http://www.w3.org/2000/svg" viewBox="0 0 154.31 159.46">
  <defs>
    <style>
      .cls-1 {
        fill-rule: evenodd;
      }

      .cls-1, .cls-2 {
        fill: #544b0b;
        stroke-width: 0px;
      }
    </style>
  </defs>
  <path class="cls-2" d="M114.5,159.46H39.97c-5.45,0-9.88-4.43-9.88-9.88V9.88c0-5.45,4.43-9.88,9.88-9.88h74.53c5.45,0,9.88,4.43,9.88,9.88v139.7c0,5.45-4.43,9.88-9.88,9.88ZM39.97,3c-3.79,0-6.88,3.09-6.88,6.88v139.7c0,3.79,3.09,6.88,6.88,6.88h74.53c3.79,0,6.88-3.09,6.88-6.88V9.88c0-3.79-3.09-6.88-6.88-6.88H39.97Z"/>
  <path class="cls-2" d="M110.51,150.93H43.96c-4.86,0-8.82-3.96-8.82-8.82V17.36c0-4.86,3.96-8.82,8.82-8.82h66.55c4.86,0,8.82,3.96,8.82,8.82v124.75c0,4.86-3.96,8.82-8.82,8.82ZM43.96,11.22c-3.39,0-6.14,2.75-6.14,6.14v124.75c0,3.39,2.75,6.14,6.14,6.14h66.55c3.39,0,6.14-2.75,6.14-6.14V17.36c0-3.39-2.75-6.14-6.14-6.14H43.96Z"/>
  <circle class="cls-2" cx="146.57" cy="13.42" r="7.74"/>
  <circle class="cls-2" cx="146.57" cy="47.62" r="7.74"/>
  <circle class="cls-2" cx="146.57" cy="81.82" r="7.74"/>
  <circle class="cls-2" cx="146.57" cy="116.02" r="7.74"/>
  <circle class="cls-2" cx="146.57" cy="150.22" r="7.74"/>
  <circle class="cls-2" cx="7.74" cy="13.42" r="7.74"/>
  <circle class="cls-2" cx="7.74" cy="47.62" r="7.74"/>
  <circle class="cls-2" cx="7.74" cy="81.82" r="7.74"/>
  <circle class="cls-2" cx="7.74" cy="116.02" r="7.74"/>
  <circle class="cls-2" cx="7.74" cy="150.22" r="7.74"/>
  <path class="cls-1" d="M70.89,69.18c-.52,0-1.04-.2-1.44-.6-.8-.8-.8-2.09,0-2.89l12.69-12.69c.8-.8,2.09-.8,2.89,0s.8,2.09,0,2.89l-12.69,12.69c-.4.4-.92.6-1.45.6Z"/>
  <path class="cls-1" d="M72.95,85.68c-.52,0-1.05-.2-1.45-.6-.79-.8-.79-2.09,0-2.89l8.58-8.58c.8-.8,2.09-.8,2.89,0s.79,2.09,0,2.89l-8.58,8.57c-.4.4-.92.6-1.44.6h0Z"/>
</svg>