<?xml version="1.0" encoding="UTF-8"?>
<svg id="Capa_1" data-name="Capa 1" xmlns="http://www.w3.org/2000/svg" viewBox="0 0 155.18 156.19">
  <defs>
    <style>
      .cls-1 {
        fill-rule: evenodd;
      }

      .cls-1, .cls-2 {
        fill: #544b0b;
        stroke-width: 0px;
      }
    </style>
  </defs>
  <path class="cls-2" d="M140.36,156.19H14.82c-8.17,0-14.82-6.65-14.82-14.82V14.82C0,6.65,6.65,0,14.82,0h125.54c8.17,0,14.82,6.65,14.82,14.82v126.55c0,8.17-6.65,14.82-14.82,14.82ZM14.82,4c-5.97,0-10.82,4.85-10.82,10.82v126.55c0,5.97,4.85,10.82,10.82,10.82h125.54c5.97,0,10.82-4.85,10.82-10.82V14.82c0-5.97-4.85-10.82-10.82-10.82H14.82Z"/>
  <path class="cls-2" d="M68.83,144.19H23.39c-5.64,0-10.22-4.59-10.22-10.22V21.68c0-5.64,4.59-10.23,10.22-10.23h45.44c5.64,0,10.22,4.59,10.22,10.23v112.29c0,5.64-4.59,10.22-10.22,10.22ZM23.39,14.38c-4.02,0-7.29,3.27-7.29,7.3v112.29c0,4.02,3.27,7.29,7.29,7.29h45.44c4.02,0,7.29-3.27,7.29-7.29V21.68c0-4.02-3.27-7.3-7.29-7.3H23.39Z"/>
  <path class="cls-2" d="M139.55,110.67h-50.22c-3.26,0-5.92-2.66-5.92-5.92v-14.94c0-3.26,2.66-5.92,5.92-5.92h50.22c3.26,0,5.92,2.66,5.92,5.92v14.94c0,3.26-2.66,5.92-5.92,5.92ZM89.33,86.07c-2.06,0-3.74,1.68-3.74,3.74v14.94c0,2.06,1.68,3.74,3.74,3.74h50.22c2.06,0,3.74-1.68,3.74-3.74v-14.94c0-2.06-1.68-3.74-3.74-3.74h-50.22Z"/>
  <path class="cls-2" d="M139.46,143.54h-50.04c-3.31,0-6.01-2.7-6.01-6.01v-14.76c0-3.31,2.7-6.01,6.01-6.01h50.04c3.31,0,6.01,2.7,6.01,6.01v14.76c0,3.31-2.7,6.01-6.01,6.01ZM89.42,118.94c-2.11,0-3.83,1.72-3.83,3.83v14.76c0,2.11,1.72,3.83,3.83,3.83h50.04c2.11,0,3.83-1.72,3.83-3.83v-14.76c0-2.11-1.72-3.83-3.83-3.83h-50.04Z"/>
  <g>
    <rect class="cls-2" x="89.17" y="31.47" width="55.2" height=".31"/>
    <rect class="cls-2" x="87.17" y="29.47" width="59.2" height="4.31"/>
  </g>
  <g>
    <rect class="cls-2" x="89.17" y="55.02" width="55.2" height=".31"/>
    <rect class="cls-2" x="87.17" y="53.02" width="59.2" height="4.31"/>
  </g>
  <g>
    <path class="cls-1" d="M38.23,68.36c-.52,0-1.04-.2-1.44-.6-.8-.8-.8-2.09,0-2.89l12.69-12.69c.8-.8,2.09-.8,2.89,0s.8,2.09,0,2.89l-12.69,12.69c-.4.4-.92.6-1.45.6Z"/>
    <path class="cls-2" d="M38.23,68.86c-.68,0-1.31-.27-1.79-.75s-.75-1.12-.75-1.8.27-1.32.75-1.8l12.69-12.69c.96-.96,2.63-.96,3.6,0,.48.48.75,1.12.75,1.8s-.27,1.32-.75,1.8l-12.69,12.69c-.48.48-1.12.75-1.8.75ZM50.92,52.08c-.41,0-.8.16-1.09.45l-12.69,12.69c-.29.29-.45.68-.45,1.09s.16.8.45,1.09c.59.59,1.6.58,2.18,0l12.69-12.69c.29-.29.45-.68.45-1.09s-.16-.8-.45-1.09-.68-.45-1.09-.45Z"/>
  </g>
  <g>
    <path class="cls-1" d="M45.42,80.22c-.52,0-1.05-.2-1.45-.6-.79-.8-.79-2.09,0-2.89l8.58-8.58c.8-.8,2.09-.8,2.89,0s.79,2.09,0,2.89l-8.58,8.57c-.4.4-.92.6-1.44.6h0Z"/>
    <path class="cls-2" d="M45.42,80.72c-.67,0-1.33-.27-1.8-.75-.98-.99-.98-2.6,0-3.6l8.58-8.58c.99-.99,2.6-.99,3.6,0,.99.99.99,2.6,0,3.59l-8.58,8.57c-.36.36-.81.6-1.29.7v.05h-.5ZM45.24,79.71h.18c.41,0,.79-.16,1.09-.45l8.58-8.57c.6-.6.6-1.58,0-2.18-.6-.6-1.58-.6-2.18,0l-8.58,8.58c-.59.6-.59,1.58,0,2.19.24.24.57.4.92.44Z"/>
  </g>
  <g>
    <path class="cls-1" d="M118.19,99.32h-7.5c-1.13,0-2.04-.91-2.04-2.04s.92-2.04,2.04-2.04h7.5c1.13,0,2.04.91,2.04,2.04s-.92,2.04-2.04,2.04Z"/>
    <path class="cls-2" d="M118.19,99.82h-7.5c-1.4,0-2.54-1.14-2.54-2.54s1.14-2.54,2.54-2.54h7.5c1.4,0,2.54,1.14,2.54,2.54s-1.14,2.54-2.54,2.54ZM110.69,95.74c-.85,0-1.54.69-1.54,1.54s.69,1.54,1.54,1.54h7.5c.85,0,1.54-.69,1.54-1.54s-.69-1.54-1.54-1.54h-7.5Z"/>
  </g>
  <g>
    <path class="cls-1" d="M118.19,132.19h-7.5c-1.13,0-2.04-.91-2.04-2.04s.92-2.04,2.04-2.04h7.5c1.13,0,2.04.91,2.04,2.04s-.92,2.04-2.04,2.04Z"/>
    <path class="cls-2" d="M118.19,132.69h-7.5c-1.4,0-2.54-1.14-2.54-2.54s1.14-2.54,2.54-2.54h7.5c1.4,0,2.54,1.14,2.54,2.54s-1.14,2.54-2.54,2.54ZM110.69,128.61c-.85,0-1.54.69-1.54,1.54s.69,1.54,1.54,1.54h7.5c.85,0,1.54-.69,1.54-1.54s-.69-1.54-1.54-1.54h-7.5Z"/>
  </g>
</svg>