<?xml version="1.0" encoding="UTF-8"?>
<svg id="Capa_1" data-name="Capa 1" xmlns="http://www.w3.org/2000/svg" viewBox="0 0 369.14 375.79">
  <defs>
    <style>
      .cls-1 {
        fill: #544b0b;
        stroke-width: 0px;
      }
    </style>
  </defs>
  <path class="cls-1" d="M15.41,23.52h338.33v345.6c0,5.1-1.89,6.67-7.94,6.67H23.7c-6.5,0-8.3-1.53-8.3-7.03V23.52h.01ZM184.56,59.03H56.86c-7.66,0-11.71,3.45-11.71,9.96v56.88c0,7.01,3.89,10.35,12,10.35h255.14c7.66,0,11.69-3.45,11.69-9.98,0-18.89-.16-37.78.09-56.67.08-6.07-4.05-10.67-12.33-10.64-42.4.18-84.8.08-127.2.08l.02.02ZM184.58,160.97H56.64c-7.34,0-11.47,3.5-11.48,9.71-.02,19.24,0,38.49,0,57.73,0,6.14,4.13,9.73,11.23,9.73h256.63c6.73,0,10.97-3.72,10.97-9.52v-57.73c0-6.53-4.02-9.91-11.71-9.91h-127.7ZM184.57,262.86H56.63c-7.08,0-11.45,3.52-11.46,9.32-.03,19.53-.03,39.06,0,58.58,0,5.65,4.34,9.27,10.99,9.27h256.63c6.97,0,11.19-3.59,11.2-9.52.01-19.39,0-38.77,0-58.16,0-.78-.03-1.57-.21-2.33-1.06-4.51-5.12-7.17-11.02-7.17h-128.19Z"/>
  <path class="cls-1" d="M184.85,0h179.45c4.46,0,4.84.32,4.84,4.08v11.5c0,3.15-.6,3.66-4.37,3.66H4.62c-4.06.01-4.62-.46-4.62-3.88V4.28C0,.34.38,0,4.9,0h179.95Z"/>
  <path class="cls-1" d="M184.45,116c-8.64-.04-15.51-6.01-15.5-13.49,0-7.5,7.09-13.55,15.78-13.51,8.61.05,15.47,6.06,15.45,13.53-.02,7.64-6.87,13.5-15.74,13.46h.01Z"/>
  <path class="cls-1" d="M184.97,190.8c8.58.12,15.33,6.21,15.22,13.73-.11,7.62-7.12,13.44-15.96,13.26-8.57-.17-15.38-6.18-15.27-13.46.11-7.7,7.16-13.65,16.01-13.52h0Z"/>
  <path class="cls-1" d="M184.79,294.36c8.7.05,15.5,6.14,15.39,13.78-.11,7.4-6.96,13.22-15.54,13.2-8.84-.02-15.8-6.02-15.69-13.53.11-7.59,7.07-13.5,15.83-13.46h0Z"/>
</svg>