<?xml version="1.0" encoding="UTF-8"?>
<svg id="Capa_1" data-name="Capa 1" xmlns="http://www.w3.org/2000/svg" viewBox="0 0 948.99 963.49">
  <defs>
    <style>
      .cls-1 {
        fill: #544b0b;
        stroke-width: 0px;
      }
    </style>
  </defs>
  <g>
    <path class="cls-1" d="M822.03,330.71v31.34c-1.92,5.71-6.64,6.72-12.06,6.34v127.88c0,1.53.03,3.06-.13,4.58-.42,4.11-3.02,6.72-7.12,7.21-1.36.16-2.74.18-4.38.29-.08,1.42-.2,2.66-.2,3.89-.02,6.12.07,12.23-.04,18.35-.12,6.55-3.18,9.54-9.69,9.58-8.28.05-16.56.06-24.84,0-6.26-.05-9.37-3.13-9.47-9.42-.1-6.11-.01-12.23-.03-18.35,0-1.34-.12-2.68-.19-4.02h-95.55c0,7.15.01,14.12,0,21.08-.02,7.92-2.86,10.72-10.87,10.72h-206.01c-8.12,0-10.82-2.68-10.82-10.74,0-123.32.01-246.65-.06-369.97,0-4.98,1.46-8.66,6.17-10.7h227.81c4.68,2.4,5.76,6.41,5.75,11.38-.1,53.11-.06,106.22-.06,159.33v5.06h5.13c45.34,0,90.68.05,136.02-.06,5.02-.01,8.66,1.48,10.64,6.23h0ZM446.84,164.91v275.13h95.25V164.91h-95.25,0ZM654.07,164.98h-95.49v358.94h55.33v-15.57c-9.69-.68-11.48-2.6-11.49-12.01v-127.98c-2.47,0-4.47.03-6.47,0-6.68-.12-9.46-2.9-9.5-9.62-.05-8.02-.03-16.05,0-24.07.03-7.4,2.75-10.12,10.17-10.13,17.7-.02,35.41,0,53.11,0h4.34v-159.56h0ZM793.69,492v-55.52h-175.04v55.52h175.04ZM793.73,420.12v-51.43h-175.05v51.43h175.05ZM446.86,523.92h95.3v-67.47h-95.3v67.47ZM805.79,340.79h-203.03v11.43h203.03v-11.43h0ZM642.05,523.96v-15.5h-11.56v15.5h11.56ZM770.26,523.86h11.63v-15.45h-11.63v15.45Z"/>
    <path class="cls-1" d="M526.23,276.68v31.63h-15.47v-31.63h15.47Z"/>
    <path class="cls-1" d="M590.18,276.81v31.46h-15.59v-31.46h15.59Z"/>
    <path class="cls-1" d="M717.81,468.16h-23.29v-15.56h23.29v15.56Z"/>
    <path class="cls-1" d="M717.85,400.16h-23.37v-15.54h23.37v15.54Z"/>
    <path class="cls-1" d="M482.86,480.5h23.33v15.52h-23.33v-15.52Z"/>
  </g>
  <path class="cls-1" d="M597.85,702.28c-47.39,0-93.38-9.29-136.69-27.6-41.82-17.69-79.37-43-111.61-75.24-32.24-32.24-57.56-69.79-75.24-111.61-18.32-43.3-27.6-89.29-27.6-136.69s9.29-93.38,27.6-136.69c17.69-41.82,43-79.37,75.24-111.61,32.24-32.24,69.79-57.56,111.61-75.24C504.47,9.29,550.46,0,597.85,0s93.38,9.29,136.69,27.6c41.82,17.69,79.37,43,111.61,75.24,32.24,32.24,57.56,69.79,75.24,111.61,18.32,43.3,27.6,89.29,27.6,136.69s-9.29,93.38-27.6,136.69c-17.69,41.82-43,79.37-75.24,111.61s-69.79,57.56-111.61,75.24c-43.3,18.32-89.29,27.6-136.69,27.6ZM597.85,44c-169.36,0-307.14,137.78-307.14,307.14s137.78,307.14,307.14,307.14,307.14-137.78,307.14-307.14S767.21,44,597.85,44Z"/>
  <path class="cls-1" d="M98.68,963.49c-15.08,0-29.25-5.87-39.91-16.53l-42.24-42.24c-10.66-10.66-16.53-24.83-16.53-39.91s5.87-29.25,16.53-39.91l184.46-184.46c10.66-10.66,24.83-16.53,39.91-16.53s29.25,5.87,39.91,16.53l42.24,42.24c10.66,10.66,16.53,24.83,16.53,39.91s-5.87,29.25-16.53,39.91l-184.46,184.46c-10.66,10.66-24.83,16.53-39.91,16.53ZM33.63,842h0c-6.09,6.09-9.45,14.19-9.45,22.81s3.36,16.72,9.45,22.81l42.24,42.24c6.09,6.09,14.19,9.45,22.81,9.45s16.72-3.36,22.81-9.45l184.46-184.46c6.09-6.09,9.45-14.19,9.45-22.81s-3.36-16.72-9.45-22.81l-42.24-42.24c-6.09-6.09-14.19-9.45-22.81-9.45s-16.72,3.36-22.81,9.45l-184.46,184.46Z"/>
  <rect class="cls-1" x="268.59" y="581.4" width="128.48" height="81.35" transform="translate(-342.39 417.55) rotate(-45)"/>
</svg>