<?xml version="1.0" encoding="UTF-8"?>
<svg id="Capa_1" data-name="Capa 1" xmlns="http://www.w3.org/2000/svg" viewBox="0 0 155.18 156.19">
  <defs>
    <style>
      .cls-1 {
        fill: #544b0b;
        stroke-width: 0px;
      }
    </style>
  </defs>
  <path class="cls-1" d="M140.36,156.19H14.82c-8.17,0-14.82-6.65-14.82-14.82V14.82C0,6.65,6.65,0,14.82,0h125.54c8.17,0,14.82,6.65,14.82,14.82v126.55c0,8.17-6.65,14.82-14.82,14.82ZM14.82,4c-5.97,0-10.82,4.85-10.82,10.82v126.55c0,5.97,4.85,10.82,10.82,10.82h125.54c5.97,0,10.82-4.85,10.82-10.82V14.82c0-5.97-4.85-10.82-10.82-10.82H14.82Z"/>
  <path class="cls-1" d="M69.7,61.72H19.48c-3.26,0-5.92-2.66-5.92-5.92v-14.94c0-3.26,2.66-5.92,5.92-5.92h50.22c3.26,0,5.92,2.66,5.92,5.92v14.94c0,3.26-2.66,5.92-5.92,5.92ZM19.48,37.12c-2.06,0-3.74,1.68-3.74,3.74v14.94c0,2.06,1.68,3.74,3.74,3.74h50.22c2.06,0,3.74-1.68,3.74-3.74v-14.94c0-2.06-1.68-3.74-3.74-3.74H19.48Z"/>
  <path class="cls-1" d="M135.7,61.72h-50.22c-3.26,0-5.92-2.66-5.92-5.92v-14.94c0-3.26,2.66-5.92,5.92-5.92h50.22c3.26,0,5.92,2.66,5.92,5.92v14.94c0,3.26-2.66,5.92-5.92,5.92ZM85.48,37.12c-2.06,0-3.74,1.68-3.74,3.74v14.94c0,2.06,1.68,3.74,3.74,3.74h50.22c2.06,0,3.74-1.68,3.74-3.74v-14.94c0-2.06-1.68-3.74-3.74-3.74h-50.22Z"/>
  <g>
    <rect class="cls-1" x="46.93" y="17.5" width="55.2" height=".31"/>
    <rect class="cls-1" x="44.93" y="15.5" width="59.2" height="4.31"/>
  </g>
  <path class="cls-1" d="M133.24,101.83H21.66c-4.08,0-7.4-3.32-7.4-7.4v-17.56c0-4.08,3.32-7.4,7.4-7.4h111.58c4.08,0,7.39,3.32,7.39,7.4v17.56c0,4.08-3.32,7.4-7.39,7.4ZM21.66,72.71c-2.3,0-4.17,1.87-4.17,4.17v17.56c0,2.3,1.87,4.17,4.17,4.17h111.58c2.3,0,4.16-1.87,4.16-4.17v-17.56c0-2.3-1.87-4.17-4.16-4.17H21.66Z"/>
  <path class="cls-1" d="M133.24,141.42H21.66c-4.08,0-7.4-3.32-7.4-7.4v-17.56c0-4.08,3.32-7.4,7.4-7.4h111.58c4.08,0,7.39,3.32,7.39,7.4v17.56c0,4.08-3.32,7.4-7.39,7.4ZM21.66,112.29c-2.3,0-4.17,1.87-4.17,4.17v17.56c0,2.3,1.87,4.17,4.17,4.17h111.58c2.3,0,4.16-1.87,4.16-4.17v-17.56c0-2.3-1.87-4.17-4.16-4.17H21.66Z"/>
</svg>